<?xml version="1.0" encoding="UTF-8"?>
<svg width="515px" height="166px" viewBox="0 0 515 166" version="1.1" xmlns="http://www.w3.org/2000/svg" xmlns:xlink="http://www.w3.org/1999/xlink">
    <title>fluent-ui-light</title>
    <defs>
        <linearGradient x1="0%" y1="50%" x2="100%" y2="50%" id="linearGradient-1">
            <stop stop-color="#54E1E4" offset="0%"></stop>
            <stop stop-color="#62DE72" offset="100%"></stop>
        </linearGradient>
        <path d="M431.548584,136.464844 C454.823324,136.464844 466.460693,124.176432 466.460693,99.5996094 L466.460693,99.5996094 L466.460693,47.4755859 L451.934326,47.4755859 L451.934326,98.9282227 C451.934326,115.489095 445.50529,123.769531 432.647217,123.769531 C419.300863,123.769531 412.627686,115.183919 412.627686,98.0126953 L412.627686,98.0126953 L412.627686,47.4755859 L398.101318,47.4755859 L398.101318,101.003418 C398.101318,124.644368 409.250407,136.464844 431.548584,136.464844 Z M502.922119,135 L502.922119,47.4755859 L487.968506,47.4755859 L487.968506,135 L502.922119,135 Z" id="path-2"></path>
    </defs>
    <g id="Page-1" stroke="none" stroke-width="1" fill="none" fill-rule="evenodd">
        <g id="Square" transform="translate(-83.000000, -499.000000)" fill-rule="nonzero">
            <g id="fluent-ui-light" transform="translate(83.000000, 499.000000)">
                <path d="M25.3769531,135 L25.3769531,98.3789062 L55.5283203,98.3789062 L55.5283203,86.1108398 L25.3769531,86.1108398 L25.3769531,59.8046875 L58.0917969,59.8046875 L58.0917969,47.4755859 L10.8505859,47.4755859 L10.8505859,135 L25.3769531,135 Z M87.2900391,135 L87.2900391,42.4707031 L73.0688477,42.4707031 L73.0688477,135 L87.2900391,135 Z M127.657715,136.464844 C136.324707,136.464844 142.713053,132.680664 146.822754,125.112305 L146.822754,125.112305 L147.066895,125.112305 L147.066895,135 L161.227051,135 L161.227051,72.5 L147.066895,72.5 L147.066895,108.449707 C147.066895,113.45459 145.713949,117.503255 143.008057,120.595703 C140.302165,123.688151 136.853678,125.234375 132.662598,125.234375 C123.995605,125.234375 119.662109,119.619141 119.662109,108.388672 L119.662109,108.388672 L119.662109,72.5 L105.501953,72.5 L105.501953,109.853516 C105.501953,127.594401 112.887207,136.464844 127.657715,136.464844 Z M206.111328,136.464844 C215.470052,136.464844 222.997721,134.674479 228.694336,131.09375 L228.694336,131.09375 L228.694336,119.680176 C223.119792,123.667806 216.995931,125.661621 210.322754,125.661621 C204.381999,125.661621 199.712809,124.095052 196.315186,120.961914 C192.917562,117.828776 191.13737,113.37321 190.974609,107.595215 L190.974609,107.595215 L233.577148,107.595215 L233.577148,102.163086 C233.577148,92.3974609 231.237467,84.7680664 226.558105,79.2749023 C221.878743,73.7817383 215.266602,71.0351562 206.72168,71.0351562 C198.176758,71.0351562 191.025472,74.0970866 185.267822,80.2209473 C179.510173,86.3448079 176.631348,94.2692057 176.631348,103.994141 C176.631348,114.288737 179.245687,122.27417 184.474365,127.950439 C189.703044,133.626709 196.915365,136.464844 206.111328,136.464844 Z M219.905273,97.5854492 L190.974609,97.5854492 C191.625651,92.7840169 193.365153,88.898112 196.193115,85.9277344 C199.021077,82.9573568 202.469564,81.472168 206.538574,81.472168 C210.688965,81.472168 213.944173,82.8861491 216.304199,85.7141113 C218.664225,88.5420736 219.864583,92.4991862 219.905273,97.5854492 L219.905273,97.5854492 Z M262.287109,135 L262.287109,99.3554688 C262.287109,94.4319661 263.690918,90.3527832 266.498535,87.1179199 C269.306152,83.8830566 272.866536,82.265625 277.179688,82.265625 C285.439779,82.265625 289.569824,88.1046549 289.569824,99.7827148 L289.569824,99.7827148 L289.569824,135 L303.72998,135 L303.72998,96.7919922 C303.72998,88.4505208 301.939616,82.072347 298.358887,77.6574707 C294.778158,73.2425944 289.590169,71.0351562 282.794922,71.0351562 C273.965169,71.0351562 267.210612,74.9820964 262.53125,82.8759766 L262.53125,82.8759766 L262.287109,82.8759766 L262.287109,72.5 L248.065918,72.5 L248.065918,135 L262.287109,135 Z M344.036621,136.403809 C348.553223,136.403809 352.194987,135.712077 354.961914,134.328613 L354.961914,134.328613 L354.961914,123.098145 C353.21224,124.481608 351.137044,125.17334 348.736328,125.17334 C345.60319,125.17334 343.365234,124.379883 342.022461,122.792969 C340.679688,121.206055 340.008301,118.561198 340.008301,114.858398 L340.008301,114.858398 L340.008301,83.6083984 L354.961914,83.6083984 L354.961914,72.5 L340.008301,72.5 L340.008301,54.0063477 L325.848145,58.034668 L325.848145,72.5 L315.411133,72.5 L315.411133,83.6083984 L325.848145,83.6083984 L325.848145,118.947754 C325.848145,130.585124 331.91097,136.403809 344.036621,136.403809 Z" id="Fluent" fill="#000000"></path>
                <g id="UI">
                    <use fill="#FFFFFF" xlink:href="#path-2"></use>
                    <use fill="url(#linearGradient-1)" xlink:href="#path-2"></use>
                </g>
            </g>
        </g>
    </g>
</svg>