<?xml version="1.0" encoding="UTF-8"?>
<svg width="436px" height="436px" viewBox="0 0 436 436" version="1.1" xmlns="http://www.w3.org/2000/svg" xmlns:xlink="http://www.w3.org/1999/xlink">
    <title>Icon</title>
    <g id="Cover" stroke="none" stroke-width="1" fill="none" fill-rule="evenodd">
        <g transform="translate(-532.000000, -206.000000)" id="Icon" stroke-width="8">
            <g transform="translate(532.000000, 206.000000)">
                <path d="M218,4 C204.119694,4 190.92312,9.60230188 178.868038,19.5890757 C165.900045,30.3321308 154.270489,46.1047413 144.502983,65.6397547 C125.006889,104.631943 113,158.50835 113,218 C113,277.49165 125.006889,331.368057 144.502983,370.360245 C154.270489,389.895259 165.900045,405.667869 178.868038,416.410924 C190.92312,426.397698 204.119694,432 218,432 C231.880306,432 245.07688,426.397698 257.131962,416.410924 C270.099955,405.667869 281.729511,389.895259 291.497017,370.360245 C310.993111,331.368057 323,277.49165 323,218 C323,158.50835 310.993111,104.631943 291.497017,65.6397547 C281.729511,46.1047413 270.099955,30.3321308 257.131962,19.5890757 C245.07688,9.60230188 231.880306,4 218,4 Z" id="Oval" stroke="#FFFFFF"></path>
                <line x1="31" y1="108.513889" x2="404.5" y2="108.513889" id="Line" stroke="#FFFFFF"></line>
                <line x1="31" y1="326.513889" x2="404.5" y2="326.513889" id="Line" stroke="#FFFFFF"></line>
                <path d="M218,4 C158.904792,4 105.404784,27.9523828 66.6785834,66.6785834 C27.9523828,105.404784 4,158.904792 4,218 C4,277.095208 27.9523828,330.595216 66.6785834,369.321417 C105.404784,408.047617 158.904792,432 218,432 C277.095208,432 330.595216,408.047617 369.321417,369.321417 C408.047617,330.595216 432,277.095208 432,218 C432,158.904792 408.047617,105.404784 369.321417,66.6785834 C330.595216,27.9523828 277.095208,4 218,4 Z" id="Oval" stroke=""></path>
            </g>
        </g>
    </g>
</svg>