<svg width="116" height="110" xmlns="http://www.w3.org/2000/svg"><path d="M80.376 76.823c4.28-.442 7.528-4.129 7.38-8.552-.147-4.424-3.837-7.963-8.266-7.963h-.295c-4.576.148-8.119 3.982-7.971 8.553.147 2.211 1.033 4.128 2.361 5.455-5.018 9.88-12.694 17.105-24.208 23.15-7.824 4.13-15.943 5.604-24.062 4.572-6.642-.885-11.809-3.834-15.056-8.7-4.724-7.225-5.167-15.04-1.181-22.855 2.804-5.604 7.233-9.732 10.038-11.797-.59-1.917-1.477-5.16-1.92-7.52-21.404 15.483-19.19 36.421-12.694 46.3 4.871 7.373 14.761 11.944 25.685 11.944 2.952 0 5.904-.295 8.857-1.032 18.894-3.686 33.213-14.893 41.332-31.555zm25.98-18.284C95.137 45.416 78.604 38.19 59.71 38.19h-2.362c-1.329-2.654-4.133-4.423-7.233-4.423h-.296c-4.576.147-8.118 3.981-7.97 8.552.147 4.424 3.837 7.963 8.266 7.963h.295c3.247-.148 6.052-2.212 7.233-5.014H60.3c11.219 0 21.847 3.244 31.442 9.585 7.38 4.865 12.695 11.206 15.647 18.874 2.51 6.193 2.362 12.238-.295 17.399-4.133 7.815-11.071 12.091-20.223 12.091-5.905 0-11.514-1.77-14.466-3.096-1.624 1.474-4.577 3.833-6.643 5.308C72.109 108.378 78.604 110 84.804 110c14.171 0 24.652-7.815 28.637-15.63 4.281-8.552 3.986-23.298-7.085-35.831zm-74.988 20.79c.147 4.424 3.838 7.963 8.266 7.963h.295c4.576-.147 8.12-3.981 7.971-8.552-.147-4.424-3.838-7.963-8.266-7.963h-.295c-.295 0-.738 0-1.033.148-6.053-10.027-8.562-20.938-7.676-32.735.59-8.847 3.542-16.514 8.709-22.855 4.28-5.456 12.547-8.11 18.156-8.257 15.648-.295 22.29 19.169 22.733 26.984 1.92.442 5.167 1.474 7.38 2.211C85.839 12.386 71.077 0 56.906 0 43.62 0 31.368 9.584 26.496 23.74c-6.79 18.874-2.362 37.01 5.905 51.314-.738 1.032-1.181 2.654-1.033 4.276z" fill="#764ABC" fill-rule="nonzero"/></svg>