<?xml version="1.0" standalone="no"?>
<!DOCTYPE svg PUBLIC "-//W3C//DTD SVG 20010904//EN"
 "http://www.w3.org/TR/2001/REC-SVG-20010904/DTD/svg10.dtd">
<svg version="1.0" xmlns="http://www.w3.org/2000/svg"
 width="270.000000pt" height="270.000000pt" viewBox="0 0 270.000000 270.000000"
 preserveAspectRatio="xMidYMid meet">
<metadata>
Created by potrace 1.11, written by Peter Selinger 2001-2013
</metadata>
<g transform="translate(0.000000,270.000000) scale(0.100000,-0.100000)"
fill="#000000" stroke="none">
<path d="M0 1350 l0 -1350 1350 0 1350 0 0 1350 0 1350 -1350 0 -1350 0 0
-1350z m920 180 l0 -600 -135 0 -135 0 0 600 0 600 135 0 135 0 0 -600z m1130
-30 l0 -560 -135 0 -135 0 0 560 0 560 135 0 135 0 0 -560z m-750 -255 l0
-315 -145 0 -145 0 0 315 0 315 145 0 145 0 0 -315z m390 0 l0 -315 -145 0
-145 0 0 315 0 315 145 0 145 0 0 -315z m-450 -545 l0 -140 -295 0 -295 0 0
140 0 140 295 0 295 0 0 -140z"/>
</g>
</svg>
