<svg width="174" height="117" xmlns="http://www.w3.org/2000/svg"><g fill="none" fill-rule="evenodd"><g fill="#FFF" fill-rule="nonzero"><path d="M142.453 60.58h12.096c7.886 0 14.3-6.427 14.3-14.327 0-7.903-6.414-14.332-14.3-14.332-.525 0-1.102.043-1.81.128l-2.328.289-.232-2.324a27.606 27.606 0 00-27.54-24.903c-6.194 0-12.04 2.107-16.76 5.718a40.365 40.365 0 00-3.211-3.247c5.603-4.434 12.621-7.038 19.97-7.038 15.925 0 29.163 11.223 31.798 26.813h.113c10.41 0 18.88 8.477 18.88 18.896 0 10.416-8.47 18.894-18.88 18.894h-12.204c.108-.946.183-1.905.183-2.882 0-.569-.037-1.127-.075-1.685"/><path d="M72.721 3.578c-15.991 0-30.77 9.791-37.104 24.47a28.461 28.461 0 00-6.038-.646c-15.738 0-28.543 12.818-28.543 28.573 0 15.753 12.805 28.57 28.543 28.57l7.058.001c-2.85-1.688-5.18-3.626-6.88-5.724h-.178c-12.573 0-22.802-10.249-22.802-22.847s10.23-22.847 22.802-22.847c2.339 0 4.66.358 6.908 1.069l2.645.841.927-2.612c4.914-13.83 18.04-23.124 32.662-23.124a34.6 34.6 0 0134.516 31.211l.294 2.914 2.914-.36c.89-.11 1.612-.16 2.269-.16 9.884 0 17.926 8.055 17.926 17.958 0 8.43-5.827 15.52-13.657 17.442-1.89 2.35-4.69 4.438-8.32 6.239h4.05c13.05 0 23.665-10.623 23.665-23.68 0-13.058-10.614-23.683-23.664-23.683h-.14C109.27 17.645 92.676 3.578 72.72 3.578z"/></g><g transform="translate(34 31)"><circle fill="#FFF" fill-rule="nonzero" cx="39.5" cy="42.5" r="7.5"/><g stroke="#FFF" stroke-width="3"><ellipse cx="39" cy="42" rx="39" ry="15.05"/><ellipse transform="rotate(60 39 42)" cx="39" cy="42" rx="39.313" ry="14.932"/><ellipse transform="rotate(120 39 42)" cx="39" cy="42" rx="39.313" ry="14.932"/></g></g></g></svg>