<?xml version="1.0" encoding="UTF-8"?>
<svg width="64px" height="64px" viewBox="0 0 64 64" version="1.1" xmlns="http://www.w3.org/2000/svg" xmlns:xlink="http://www.w3.org/1999/xlink">
    <!-- Generator: Sketch 46.2 (44496) - http://www.bohemiancoding.com/sketch -->
    <title>react-weather-logo</title>
    <desc>Created with Sketch.</desc>
    <defs></defs>
    <g id="Page-1" stroke="none" stroke-width="1" fill="none" fill-rule="evenodd">
        <g id="react-weather-logo">
            <g id="cloudy" transform="translate(32.000000, 33.000000) scale(-1, 1) translate(-32.000000, -33.000000) translate(0.000000, 1.000000)">
                <g id="Fill-1-+-Rectangle-1-Copy-6" stroke="#2B2B2B" opacity="0.0229127799">
                    <rect id="Rectangle-1" x="0.5" y="0.5" width="63" height="63"></rect>
                </g>
                <g id="Imported-Layers-Copy-2" transform="translate(1.222930, 17.121019)" fill="#FFFFFF">
                    <path d="M10.9329623,21.3270828 L6.68099167,21.3270828 C3.90916139,21.3270828 1.65438589,19.0590064 1.65438589,16.2705732 C1.65438589,13.4811975 3.90916139,11.2121783 6.68099167,11.2121783 C6.86565409,11.2121783 7.06830926,11.2272611 7.31736678,11.2574268 L8.13556335,11.3592357 L8.21700421,10.5391083 C8.72269515,5.52784713 12.883755,1.7496051 17.89805,1.7496051 C20.0751726,1.7496051 22.1301339,2.4933758 23.7892547,3.76787261 C24.1472157,3.36252229 24.5222224,2.9788535 24.9180629,2.62157962 C22.9483304,1.05673885 20.4814299,0.137630573 17.89805,0.137630573 C12.3004112,0.137630573 7.64691818,4.09875159 6.72076512,9.6011465 L6.68099167,9.6011465 C3.02183479,9.6011465 0.0445083782,12.5931975 0.0445083782,16.2705732 C0.0445083782,19.9470064 3.02183479,22.9390573 6.68099167,22.9390573 L10.9708417,22.9390573 C10.9329623,22.6053503 10.9064466,22.2669299 10.9064466,21.9219108 C10.9064466,21.721121 10.9197045,21.5241019 10.9329623,21.3270828" id="Fill-1"></path>
                    <path d="M50.609814,9.61717197 C49.895786,9.61717197 49.1836519,9.69352866 48.4876167,9.84529936 C46.2612508,4.66435669 41.0660813,1.20850955 35.4447679,1.20850955 C28.4304368,1.20850955 22.5969983,6.17357962 21.4359926,13.0692484 L21.3867492,13.0692484 C16.7995453,13.0692484 13.0684174,16.8192102 13.0684174,21.427949 C13.0684174,26.0366879 16.7995453,29.785707 21.3867492,29.785707 L50.609814,29.785707 C56.1421107,29.785707 60.6431389,25.2618089 60.6431389,19.7019108 C60.6431389,14.1410701 56.1421107,9.61717197 50.609814,9.61717197 L50.609814,9.61717197 Z M58.62511,19.7019108 C58.62511,24.1485096 55.0294013,27.7655541 50.609814,27.7655541 L21.3867492,27.7655541 C17.9122548,27.7655541 15.0854993,24.9233885 15.0854993,21.427949 C15.0854993,17.9325096 17.9122548,15.0894013 21.3867492,15.0894013 C21.617814,15.0894013 21.8716065,15.1073121 22.1841121,15.1459618 L23.2087518,15.2732229 L23.3119733,14.2447643 C23.9455075,7.96466242 29.1615106,3.22866242 35.4447679,3.22866242 C40.5850121,3.22866242 45.1987316,6.50917197 46.9260355,11.3903439 L47.2517989,12.3122803 L48.1817399,12.0153376 C48.9715269,11.764586 49.7878295,11.6382675 50.609814,11.6382675 C55.0294013,11.6382675 58.62511,15.2553121 58.62511,19.7019108 L58.62511,19.7019108 Z" id="Fill-2"></path>
                </g>
            </g>
            <g id="react" transform="translate(11.000000, 28.000000)" fill-rule="nonzero">
                <path d="M0.0971953125,14.9673913 C0.0971953125,17.4736957 2.51586328,19.8133043 6.32891016,21.1321304 C5.56746094,25.0108696 6.19252734,28.1372609 8.28003516,29.3553913 C10.4256797,30.6075652 13.6222969,29.7408261 16.6563633,27.0571304 C19.6138594,29.6324348 22.6028086,30.645913 24.6885117,29.4242609 C26.8322227,28.1685652 27.4841016,24.8302174 26.7016406,20.8303043 C30.6732422,19.5016957 32.8948125,17.5066957 32.8948125,14.9673913 C32.8948125,12.5192609 30.4717617,10.4013913 26.7100195,9.09104348 C27.5524219,4.92586957 26.838668,1.8753913 24.6646641,0.606913043 C22.5687773,-0.616043478 19.5450234,0.449869565 16.5440859,3.09247826 C13.4219766,0.287608696 10.4281289,-0.568695652 8.25644531,0.703304348 C6.16249219,1.92978261 5.56501172,5.11304348 6.32891016,9.06352174 C2.64451172,10.3633043 0.0971953125,12.5291739 0.0971953125,14.9673913 Z" id="Shape" fill="#00BCD4"></path>
                <path d="M25.9133789,10.3922609 C25.6033553,10.2846558 25.2907014,10.184972 24.9757148,10.0933043 C25.0279509,9.87853118 25.0762561,9.66279862 25.1206055,9.44621739 C25.8303633,5.95995652 25.3663008,3.15143478 23.7815273,2.22691304 C22.2621094,1.34021739 19.7770547,2.26473913 17.26725,4.47469565 C17.0199412,4.6929578 16.7781218,4.91750771 16.5420234,5.14813043 C16.3839148,4.99477999 16.2230122,4.84440636 16.0593984,4.69708696 C13.4290664,2.33386957 10.7925469,1.33813043 9.20944922,2.2653913 C7.69144922,3.15456522 7.24182422,5.79495652 7.8808125,9.09886957 C7.94438737,9.42605334 8.01616835,9.7515497 8.09608594,10.0750435 C7.72303125,10.1822609 7.36273828,10.2965217 7.01804297,10.418087 C3.93434766,11.505913 1.96491797,13.2109565 1.96491797,14.9793913 C1.96491797,16.806 4.07898047,18.638087 7.29106641,19.7488696 C7.55151914,19.8385214 7.81413975,19.9215906 8.07868359,19.998 C7.99274204,20.3465139 7.91644273,20.69739 7.849875,21.0502174 C7.24066406,24.2967391 7.71645703,26.8745217 9.23046094,27.7582174 C10.7942227,28.6706087 13.4187539,27.7327826 15.9744492,25.4723478 C16.1764453,25.2936522 16.3792148,25.1041304 16.5822422,24.9054783 C16.8379692,25.1551382 17.1005243,25.3975367 17.3696016,25.6323913 C19.8451172,27.7878261 22.2899531,28.6582174 23.802668,27.7721739 C25.3650117,26.8570435 25.8726445,24.0877826 25.213418,20.7185217 C25.1631445,20.4611739 25.1044922,20.1983478 25.03875,19.9306957 C25.2230859,19.8756522 25.4039414,19.8187826 25.5804141,19.7595652 C28.9196016,18.6401739 31.0920586,16.8303913 31.0920586,14.9793913 C31.0920586,13.2045652 29.059207,11.4880435 25.9133789,10.3922609 Z" id="Shape" fill="#FFFFFF"></path>
                <path d="M25.1890547,18.5645217 C25.0298555,18.6178696 24.8664023,18.6693913 24.6998555,18.7193478 C24.3311836,17.5385217 23.8336055,16.2828261 23.2249102,14.9856522 C23.8058906,13.7191304 24.2841328,12.4796087 24.6424922,11.3063478 C24.9403945,11.3937391 25.2296602,11.4856957 25.5083555,11.5828696 C28.2037852,12.5216087 29.8478555,13.9098261 29.8478555,14.9793913 C29.8478555,16.1187391 28.0721719,17.5978696 25.1891836,18.5645217 L25.1890547,18.5645217 Z M23.9928047,20.963087 C24.2842617,22.452913 24.3258984,23.799913 24.1327969,24.852913 C23.9592891,25.799087 23.6104687,26.4298696 23.1791484,26.6825217 C22.261207,27.2201739 20.2980937,26.5213043 18.1811953,24.678 C17.9384648,24.4666957 17.6939297,24.2410435 17.44875,24.0023478 C18.2694961,23.094 19.0897266,22.038 19.8902344,20.8653913 C21.2984063,20.739 22.6287188,20.5322609 23.8351523,20.2501304 C23.8944492,20.4927391 23.9473008,20.7305217 23.9928047,20.963087 L23.9928047,20.963087 Z M11.8949531,26.5896522 C10.9981523,26.9101304 10.2838828,26.9192609 9.85217578,26.6673913 C8.93333203,26.1313043 8.55151172,24.0613043 9.07242187,21.285 C9.13436649,20.9568992 9.20529219,20.6305998 9.28511719,20.3064783 C10.4781445,20.5734783 11.7987891,20.7656087 13.2103125,20.8814348 C14.0161055,22.0288696 14.8600547,23.0835652 15.7105781,24.0071739 C15.5298192,24.1841039 15.3447827,24.356504 15.1556367,24.5242174 C14.0255156,25.5238696 12.8930742,26.232913 11.895082,26.5896522 L11.8949531,26.5896522 Z M7.69351172,18.5574783 C6.27322266,18.0662609 5.10030469,17.427913 4.29631641,16.7313913 C3.57392578,16.1053043 3.20912109,15.4837826 3.20912109,14.9793913 C3.20912109,13.9063043 4.79041406,12.5373913 7.42770703,11.607 C7.75872529,11.4907327 8.09303645,11.3842958 8.43021094,11.2878261 C8.79475781,12.4874348 9.27287109,13.7416957 9.84985547,15.0100435 C9.26539453,16.2973043 8.78044922,17.5715217 8.41255078,18.7852174 C8.17106315,18.7152772 7.93131105,18.6393413 7.69351172,18.5574783 L7.69351172,18.5574783 Z M9.10194141,8.85704348 C8.55447656,6.02621739 8.91799219,3.89086957 9.83283984,3.35504348 C10.8073711,2.78426087 12.9620391,3.59817391 15.2331094,5.63856522 C15.3782578,5.769 15.5240508,5.90556522 15.6701016,6.04682609 C14.8239609,6.96626087 13.9877461,8.013 13.1889141,9.15378261 C11.8190273,9.28226087 10.5076641,9.4886087 9.30213281,9.765 C9.22787294,9.4640543 9.16112127,9.1612625 9.10194141,8.85691304 L9.10194141,8.85704348 Z M21.6660469,11.9962174 C21.3813029,11.4985344 21.0859961,11.007116 20.780332,10.5223043 C21.7097461,10.641 22.6001016,10.7988261 23.4361875,10.992 C23.185207,11.8060435 22.8723516,12.6572609 22.5039375,13.5298696 C22.2347577,13.0130595 21.9554051,12.5017402 21.6660469,11.9962174 L21.6660469,11.9962174 Z M16.5424102,6.94656522 C17.1163008,7.57565217 17.6910937,8.27817391 18.2564766,9.04030435 C17.109599,8.98546698 15.960808,8.98520582 14.8139062,9.03952174 C15.3798047,8.28443478 15.9594961,7.58295652 16.5424102,6.94656522 L16.5424102,6.94656522 Z M11.3859023,12.0048261 C11.100167,12.5063285 10.8260376,13.0145104 10.5637383,13.5289565 C10.2013828,12.6593478 9.89136328,11.8043478 9.63819141,10.9786957 C10.46925,10.7904783 11.3554805,10.6366957 12.2788359,10.5199565 C11.9697462,11.0077728 11.6720197,11.5028657 11.3859023,12.0048261 L11.3859023,12.0048261 Z M12.3053906,19.5286957 C11.3514844,19.4209565 10.4518477,19.275 9.62104687,19.092 C9.87821484,18.2517391 10.1950664,17.3783478 10.5651562,16.490087 C10.8285614,17.0049144 11.1038953,17.5134028 11.3909297,18.0151304 C11.683819,18.5269341 11.988726,19.0315992 12.3053906,19.5286957 L12.3053906,19.5286957 Z M16.5768281,23.1011739 C15.987082,22.4572174 15.3988828,21.7450435 14.8243477,20.979 C15.3819961,21.0011739 15.9506016,21.0123913 16.5284883,21.0123913 C17.1222305,21.0123913 17.7091406,20.9989565 18.2867695,20.9728696 C17.719582,21.7528696 17.1468516,22.466087 16.5768281,23.1011739 Z M22.5157969,16.4448261 C22.9050937,17.3427391 23.2332891,18.2114348 23.4939375,19.0374783 C22.6493437,19.2324783 21.7375898,19.3895217 20.7768516,19.5061304 C21.084725,19.012267 21.3828582,18.5122551 21.6710742,18.0063913 C21.9640634,17.4922755 22.2457073,16.9716248 22.5157969,16.4448261 L22.5157969,16.4448261 Z M20.5931602,17.3774348 C20.1519398,18.1529943 19.6859123,18.9138311 19.1958164,19.6587391 C18.3316289,19.7212174 17.4385664,19.7534348 16.5284883,19.7534348 C15.6221484,19.7534348 14.7404297,19.7248696 13.8913242,19.6691739 C13.3885172,18.9260003 12.9136738,18.1638467 12.4678125,17.3843478 C12.0240352,16.6089847 11.6095178,15.8168487 11.2251562,15.0096522 C11.6085402,14.2022138 12.021805,13.4096535 12.4640742,12.6336522 L12.4640742,12.633913 C12.9062047,11.8577465 13.3773098,11.0988517 13.8763711,10.3588696 C14.7426211,10.2926087 15.6307852,10.257913 16.5286172,10.257913 C17.4304453,10.257913 18.3197695,10.2928696 19.1857617,10.3596522 C19.679775,11.0984956 20.1478671,11.8547488 20.5891641,12.627 C21.0329541,13.4012749 21.4517342,14.1899528 21.8448398,14.9917826 C21.4557779,15.8017818 21.0383297,16.5975035 20.5932891,17.3774348 L20.5931602,17.3774348 Z M23.1600703,3.3176087 C24.135375,3.88682609 24.5147461,6.18208696 23.9019258,9.19213043 C23.8617587,9.38821658 23.8180953,9.58355277 23.770957,9.77804348 C22.5625898,9.49591304 21.2503242,9.28591304 19.8764414,9.15547826 C19.0760625,8.00230435 18.2468086,6.95373913 17.414332,6.04617391 C17.6324753,5.83337582 17.8558099,5.62609447 18.0841289,5.42452174 C20.234543,3.53086957 22.2443203,2.78321739 23.1600703,3.3176087 L23.1600703,3.3176087 Z" id="Shape" fill="#00BCD4"></path>
                <path d="M16.5284883,12.3476087 C17.9650195,12.3476087 19.1294297,13.5259565 19.1294297,14.9793913 C19.1294297,16.4329565 17.9650195,17.6113043 16.5284883,17.6113043 C15.0920859,17.6113043 13.9275469,16.4329565 13.9275469,14.9793913 C13.9275469,13.5259565 15.0920859,12.3476087 16.5284883,12.3476087" id="Shape" fill="#FFFFFF"></path>
            </g>
        </g>
    </g>
</svg>